<svg width="45" height="35" viewBox="0 0 45 35" fill="none"
  xmlns="http://www.w3.org/2000/svg">
  <path d="M14.6493 32.7734V30.7309C14.6613 30.5591 14.6365 30.3867 14.5766 30.2252C14.5167 30.0638 14.423 29.9169 14.3019 29.7945C14.1808 29.6721 14.0349 29.5769 13.8741 29.5153C13.7133 29.4537 13.5412 29.4271 13.3693 29.4372C13.1443 29.4226 12.9195 29.4686 12.7183 29.5704C12.5172 29.6722 12.3469 29.826 12.2255 30.016C12.1148 29.8317 11.9564 29.6807 11.7671 29.5788C11.5778 29.477 11.3645 29.428 11.1497 29.4372C10.9625 29.4278 10.776 29.4675 10.6089 29.5523C10.4417 29.6371 10.2995 29.764 10.1965 29.9207V29.519H9.48839V32.7734H10.2033V30.9692C10.1878 30.8579 10.1972 30.7445 10.2308 30.6372C10.2643 30.5299 10.3213 30.4314 10.3974 30.3488C10.4736 30.2661 10.5671 30.2013 10.6713 30.1591C10.7754 30.1169 10.8877 30.0982 10.9999 30.1045C11.4697 30.1045 11.708 30.4109 11.708 30.9624V32.7734H12.4229V30.9692C12.4086 30.8581 12.4188 30.7452 12.4528 30.6384C12.4868 30.5316 12.5438 30.4336 12.6197 30.3512C12.6956 30.2688 12.7887 30.204 12.8923 30.1614C12.9959 30.1188 13.1076 30.0994 13.2195 30.1045C13.7029 30.1045 13.9344 30.4109 13.9344 30.9624V32.7734H14.6493ZM18.6392 31.1462V29.519H17.931V29.9138C17.8102 29.7581 17.6538 29.6335 17.4749 29.5506C17.296 29.4677 17.0999 29.4288 16.9029 29.4372C16.4642 29.4588 16.0505 29.6482 15.7476 29.9663C15.4447 30.2845 15.2757 30.7069 15.2757 31.1462C15.2757 31.5855 15.4447 32.008 15.7476 32.3261C16.0505 32.6442 16.4642 32.8337 16.9029 32.8552C17.0999 32.8636 17.296 32.8247 17.4749 32.7418C17.6538 32.6589 17.8102 32.5343 17.931 32.3786V32.7734H18.6392V31.1462ZM16.0042 31.1462C16.0152 30.9541 16.0822 30.7695 16.1969 30.6151C16.3115 30.4606 16.4689 30.3431 16.6495 30.277C16.8302 30.2109 17.0262 30.1992 17.2135 30.2432C17.4007 30.2872 17.571 30.385 17.7033 30.5246C17.8356 30.6643 17.9242 30.8396 17.9581 31.0289C17.992 31.2182 17.9697 31.4134 17.894 31.5902C17.8183 31.767 17.6925 31.9179 17.5321 32.0241C17.3718 32.1303 17.1838 32.1872 16.9914 32.1879C16.8566 32.1897 16.7229 32.1636 16.5987 32.1111C16.4745 32.0587 16.3624 31.9811 16.2697 31.8833C16.1769 31.7854 16.1055 31.6694 16.0598 31.5425C16.0141 31.4156 15.9952 31.2807 16.0042 31.1462ZM33.7906 29.4334C34.0297 29.4311 34.267 29.4756 34.489 29.5643C34.696 29.6469 34.8848 29.7693 35.0446 29.9245C35.2019 30.0788 35.3267 30.2631 35.4116 30.4665C35.5885 30.9024 35.5885 31.39 35.4116 31.8258C35.3268 32.0293 35.202 32.2136 35.0446 32.368C34.8848 32.5232 34.696 32.6456 34.489 32.7281C34.0398 32.9027 33.5415 32.9027 33.0922 32.7281C32.8856 32.6458 32.6974 32.5234 32.5383 32.368C32.3819 32.2132 32.2577 32.0289 32.173 31.8258C31.9963 31.3899 31.9963 30.9024 32.173 30.4665C32.2577 30.2635 32.3819 30.0793 32.5383 29.9245C32.6974 29.7691 32.8856 29.6466 33.0922 29.5643C33.3143 29.4756 33.5515 29.4311 33.7906 29.4334ZM33.7906 30.1029C33.6521 30.1017 33.5148 30.1277 33.3863 30.1794C33.2652 30.228 33.1553 30.3008 33.0635 30.3934C32.9709 30.4881 32.8981 30.6001 32.8493 30.7232C32.7451 30.9956 32.7451 31.2969 32.8493 31.5694C32.8981 31.6924 32.9709 31.8044 33.0635 31.899C33.1553 31.9916 33.2652 32.0645 33.3863 32.1131C33.6462 32.215 33.9351 32.215 34.195 32.1131C34.3165 32.0642 34.4268 31.9914 34.5196 31.899C34.6129 31.8047 34.6864 31.6926 34.7354 31.5694C34.8397 31.2969 34.8397 30.9956 34.7354 30.7232C34.6863 30.5999 34.6129 30.4877 34.5196 30.3934C34.4268 30.3011 34.3164 30.2283 34.195 30.1794C34.0665 30.1277 33.9291 30.1017 33.7906 30.1029ZM22.4922 31.1462C22.4854 30.1317 21.859 29.4372 20.9467 29.4372C20.505 29.4604 20.0895 29.6537 19.7874 29.9766C19.4852 30.2995 19.3199 30.7269 19.326 31.1691C19.3322 31.6113 19.5094 32.0339 19.8204 32.3483C20.1315 32.6627 20.5522 32.8443 20.9943 32.8552C21.4801 32.8722 21.9551 32.7098 22.3288 32.399L21.9816 31.8747C21.7127 32.0902 21.3797 32.2099 21.0352 32.2151C20.8012 32.2348 20.5687 32.1627 20.387 32.014C20.2053 31.8653 20.0885 31.6518 20.0615 31.4185H22.4786C22.4854 31.33 22.4922 31.2416 22.4922 31.1462ZM20.0683 30.8602C20.0808 30.6417 20.1782 30.4368 20.3398 30.2892C20.5014 30.1416 20.7143 30.0631 20.933 30.0705C21.1469 30.0663 21.3537 30.1471 21.5081 30.2951C21.6626 30.4432 21.752 30.6464 21.7569 30.8602H20.0683ZM25.4742 30.3496C25.1653 30.1719 24.8161 30.0758 24.4598 30.0705C24.0716 30.0705 23.8402 30.2134 23.8402 30.4518C23.8402 30.6697 24.0852 30.7309 24.3917 30.7717L24.7253 30.8194C25.4334 30.9215 25.8623 31.2211 25.8623 31.793C25.8623 32.4126 25.3176 32.8552 24.378 32.8552C23.8751 32.8691 23.3811 32.7211 22.9687 32.433L23.3023 31.8815C23.6147 32.1132 23.996 32.2331 24.3849 32.222C24.8682 32.222 25.127 32.079 25.127 31.827C25.127 31.6432 24.9431 31.5411 24.5551 31.4866L24.2214 31.439C23.4929 31.3368 23.098 31.01 23.098 30.4789C23.098 29.8321 23.6291 29.4372 24.4529 29.4372C24.919 29.4212 25.3798 29.5393 25.7806 29.7777L25.4742 30.3496ZM28.8766 30.1658H27.7192V31.6365C27.7192 31.9632 27.8349 32.1811 28.189 32.1811C28.41 32.1738 28.6255 32.1106 28.8154 31.9973L29.0196 32.6033C28.7541 32.7688 28.4474 32.8561 28.1345 32.8552C27.2971 32.8552 27.0043 32.4058 27.0043 31.65V30.1658H26.3438V29.519H27.0043L27.0041 28.5317H27.719L27.7192 29.519H28.8766V30.1658ZM31.3272 29.4372C31.4989 29.4379 31.6693 29.4679 31.8311 29.5258L31.6132 30.193C31.4724 30.137 31.3221 30.1092 31.1706 30.1113C30.7076 30.1113 30.4761 30.4109 30.4761 30.9487V32.7734H29.768V29.519H30.4693V29.9138C30.5562 29.7646 30.6818 29.6415 30.8327 29.5576C30.9837 29.4737 31.1545 29.4321 31.3272 29.4372ZM36.2293 32.2997C36.2734 32.2994 36.317 32.3081 36.3576 32.3251C36.3966 32.3414 36.4322 32.365 36.4624 32.3946C36.4924 32.4241 36.5163 32.4592 36.533 32.4978C36.55 32.5375 36.5588 32.5802 36.5588 32.6234C36.5588 32.6666 36.55 32.7094 36.533 32.7491C36.5162 32.7875 36.4923 32.8224 36.4624 32.8519C36.4321 32.8815 36.3966 32.9051 36.3576 32.9217C36.3171 32.939 36.2734 32.9478 36.2293 32.9475C36.1645 32.9482 36.1009 32.9297 36.0464 32.8944C35.992 32.8591 35.9492 32.8086 35.9233 32.7491C35.9063 32.7094 35.8976 32.6666 35.8976 32.6234C35.8976 32.5803 35.9063 32.5375 35.9233 32.4978C35.9399 32.4592 35.9638 32.4242 35.9936 32.3946C36.0238 32.3648 36.0595 32.3412 36.0988 32.3251C36.1402 32.308 36.1846 32.2994 36.2293 32.2997ZM36.2293 32.8761C36.2629 32.8763 36.2962 32.8696 36.327 32.8562C36.3566 32.8434 36.3836 32.8251 36.4064 32.8023C36.4356 32.7731 36.4573 32.7372 36.4694 32.6977C36.4815 32.6582 36.4838 32.6163 36.476 32.5758C36.4681 32.5352 36.4504 32.4972 36.4245 32.465C36.3985 32.4329 36.3651 32.4076 36.327 32.3915C36.2962 32.3783 36.2629 32.3717 36.2293 32.372C36.1952 32.3717 36.1613 32.3783 36.1297 32.3915C36.0996 32.4038 36.0723 32.422 36.0492 32.4449C36.0021 32.4925 35.9757 32.5567 35.9757 32.6236C35.9757 32.6905 36.0021 32.7547 36.0492 32.8023C36.0729 32.8258 36.101 32.8445 36.1319 32.8571C36.1628 32.8698 36.1959 32.8762 36.2293 32.8761ZM36.2484 32.4719C36.2803 32.4699 36.3119 32.479 36.3378 32.4978C36.3481 32.5063 36.3563 32.5171 36.3617 32.5292C36.3671 32.5414 36.3697 32.5547 36.3691 32.5681C36.3695 32.5795 36.3674 32.5908 36.3631 32.6014C36.3588 32.612 36.3523 32.6216 36.3441 32.6295C36.3244 32.6471 36.2994 32.6575 36.273 32.6593L36.3715 32.7728H36.2945L36.2032 32.6601H36.1738V32.7728H36.1095V32.4719H36.2484ZM36.1738 32.5284V32.6086H36.2477C36.2618 32.6093 36.2759 32.6058 36.2882 32.5986C36.2931 32.5952 36.2971 32.5907 36.2998 32.5853C36.3024 32.58 36.3036 32.574 36.3032 32.5681C36.3035 32.5622 36.3023 32.5564 36.2997 32.5511C36.297 32.5459 36.2931 32.5414 36.2882 32.5382C36.2759 32.5311 36.2618 32.5277 36.2477 32.5284H36.1738Z" fill="currentColor"/>
  <path d="M17.8127 14.3288C17.811 12.4703 18.2321 10.6357 19.0443 8.96395C19.8564 7.29221 21.0383 5.82714 22.5003 4.67967C20.6898 3.25654 18.5154 2.37152 16.2256 2.12576C13.9358 1.88 11.6231 2.28342 9.55182 3.2899C7.4805 4.29639 5.73415 5.86534 4.51236 7.81741C3.29058 9.76949 2.64265 12.0259 2.64265 14.3288C2.64265 16.6317 3.29058 18.8882 4.51236 20.8403C5.73415 22.7924 7.4805 24.3613 9.55182 25.3678C11.6231 26.3743 13.9358 26.7777 16.2256 26.5319C18.5154 26.2862 20.6898 25.4011 22.5003 23.978C21.0383 22.8305 19.8564 21.3655 19.0443 19.6937C18.2321 18.022 17.811 16.1874 17.8127 14.3288Z" fill="currentColor"/>
  <path d="M41.1864 21.9339V21.5388H41.3457V21.4583H40.94V21.5388H41.0994V21.9339H41.1864ZM41.9741 21.9339V21.4575H41.8497L41.7067 21.7852L41.5636 21.4575H41.4392V21.9339H41.527V21.5746L41.6612 21.8843H41.7522L41.8864 21.5738V21.9339H41.9741Z" fill="currentColor"/>
  <path d="M42.3573 14.3288C42.3574 16.6317 41.7096 18.8882 40.4879 20.8402C39.2661 22.7923 37.5198 24.3613 35.4486 25.3678C33.3773 26.3743 31.0646 26.7777 28.7749 26.5319C26.4852 26.2862 24.3108 25.4011 22.5003 23.978C23.9611 22.8294 25.142 21.3641 25.954 19.6926C26.766 18.0211 27.1879 16.1871 27.1879 14.3288C27.1879 12.4706 26.766 10.6366 25.954 8.96508C25.142 7.2936 23.9611 5.8283 22.5003 4.67967C24.3108 3.25654 26.4852 2.37151 28.7749 2.12576C31.0646 1.88 33.3773 2.28342 35.4486 3.28992C37.5198 4.29642 39.2661 5.86537 40.4879 7.81745C41.7096 9.76953 42.3574 12.026 42.3573 14.3288Z" fill="currentColor"/>
  <path d="M17.8127 14.3289C17.811 12.4703 18.2322 10.6357 19.0443 8.96401C19.8564 7.2922 21.0383 5.82713 22.5003 4.67969C23.9611 5.8283 25.142 7.2937 25.954 8.96518C26.766 10.6367 27.1879 12.4706 27.1879 14.3289C27.1879 16.1871 26.766 18.0212 25.954 19.6927C25.142 21.364 23.9611 22.8294 22.5003 23.978C21.0383 22.8306 19.8564 21.3655 19.0443 19.6937C18.2322 18.0221 17.811 16.1875 17.8127 14.3289Z" fill="currentColor"/>
</svg>
