<svg width="45" height="35" viewBox="0 0 45 35" fill="none"
  xmlns="http://www.w3.org/2000/svg">
  <path d="M14.6492 32.7734V30.7309C14.6612 30.5591 14.6364 30.3867 14.5765 30.2252C14.5166 30.0638 14.4229 29.9169 14.3018 29.7945C14.1807 29.6721 14.0348 29.5769 13.874 29.5153C13.7132 29.4537 13.5411 29.4271 13.3692 29.4372C13.1442 29.4226 12.9194 29.4686 12.7182 29.5704C12.5171 29.6722 12.3468 29.826 12.2254 30.016C12.1147 29.8317 11.9563 29.6807 11.767 29.5788C11.5777 29.477 11.3644 29.428 11.1496 29.4372C10.9624 29.4278 10.7759 29.4675 10.6088 29.5523C10.4416 29.6371 10.2994 29.764 10.1964 29.9207V29.519H9.48828V32.7734H10.2032V30.9692C10.1877 30.8579 10.1971 30.7445 10.2307 30.6372C10.2642 30.5299 10.3212 30.4314 10.3973 30.3488C10.4735 30.2661 10.567 30.2013 10.6712 30.1591C10.7753 30.1169 10.8876 30.0982 10.9998 30.1045C11.4696 30.1045 11.7079 30.4109 11.7079 30.9624V32.7734H12.4228V30.9692C12.4085 30.8581 12.4187 30.7452 12.4527 30.6384C12.4867 30.5316 12.5437 30.4336 12.6196 30.3512C12.6955 30.2688 12.7886 30.204 12.8922 30.1614C12.9958 30.1188 13.1075 30.0994 13.2194 30.1045C13.7028 30.1045 13.9343 30.4109 13.9343 30.9624V32.7734H14.6492ZM18.6391 31.1462V29.519H17.9309V29.9138C17.8101 29.7581 17.6537 29.6335 17.4748 29.5506C17.2959 29.4677 17.0998 29.4288 16.9028 29.4372C16.4641 29.4588 16.0504 29.6482 15.7475 29.9663C15.4446 30.2845 15.2756 30.7069 15.2756 31.1462C15.2756 31.5855 15.4446 32.008 15.7475 32.3261C16.0504 32.6442 16.4641 32.8337 16.9028 32.8552C17.0998 32.8636 17.2959 32.8247 17.4748 32.7418C17.6537 32.6589 17.8101 32.5343 17.9309 32.3786V32.7734H18.6391V31.1462ZM16.0041 31.1462C16.0151 30.9541 16.0821 30.7695 16.1968 30.6151C16.3114 30.4606 16.4688 30.3431 16.6494 30.277C16.8301 30.2109 17.0261 30.1992 17.2134 30.2432C17.4006 30.2872 17.5709 30.385 17.7032 30.5246C17.8355 30.6643 17.9241 30.8396 17.958 31.0289C17.9919 31.2182 17.9696 31.4134 17.8939 31.5902C17.8182 31.767 17.6924 31.9179 17.532 32.0241C17.3717 32.1303 17.1837 32.1872 16.9913 32.1879C16.8565 32.1897 16.7228 32.1636 16.5986 32.1111C16.4744 32.0587 16.3623 31.9811 16.2696 31.8833C16.1768 31.7854 16.1054 31.6694 16.0597 31.5425C16.014 31.4156 15.9951 31.2807 16.0041 31.1462ZM33.7905 29.4334C34.0296 29.4311 34.2669 29.4756 34.4889 29.5643C34.6959 29.6469 34.8847 29.7693 35.0445 29.9245C35.2018 30.0788 35.3266 30.2631 35.4115 30.4665C35.5884 30.9024 35.5884 31.39 35.4115 31.8258C35.3267 32.0293 35.2019 32.2136 35.0445 32.368C34.8847 32.5232 34.6959 32.6456 34.4889 32.7281C34.0397 32.9027 33.5414 32.9027 33.0921 32.7281C32.8855 32.6458 32.6973 32.5234 32.5382 32.368C32.3818 32.2132 32.2576 32.0289 32.1729 31.8258C31.9962 31.3899 31.9962 30.9024 32.1729 30.4665C32.2576 30.2635 32.3818 30.0793 32.5382 29.9245C32.6973 29.7691 32.8855 29.6466 33.0921 29.5643C33.3142 29.4756 33.5514 29.4311 33.7905 29.4334ZM33.7905 30.1029C33.652 30.1017 33.5147 30.1277 33.3862 30.1794C33.2651 30.228 33.1552 30.3008 33.0634 30.3934C32.9708 30.4881 32.898 30.6001 32.8492 30.7232C32.745 30.9956 32.745 31.2969 32.8492 31.5694C32.898 31.6924 32.9708 31.8044 33.0634 31.899C33.1552 31.9916 33.2651 32.0645 33.3862 32.1131C33.6461 32.215 33.935 32.215 34.1949 32.1131C34.3164 32.0642 34.4267 31.9914 34.5195 31.899C34.6128 31.8047 34.6863 31.6926 34.7353 31.5694C34.8396 31.2969 34.8396 30.9956 34.7353 30.7232C34.6862 30.5999 34.6128 30.4877 34.5195 30.3934C34.4267 30.3011 34.3163 30.2283 34.1949 30.1794C34.0664 30.1277 33.929 30.1017 33.7905 30.1029ZM22.4921 31.1462C22.4853 30.1317 21.8589 29.4372 20.9466 29.4372C20.5049 29.4604 20.0894 29.6537 19.7873 29.9766C19.4851 30.2995 19.3198 30.7269 19.3259 31.1691C19.3321 31.6113 19.5093 32.0339 19.8203 32.3483C20.1314 32.6627 20.5521 32.8443 20.9942 32.8552C21.48 32.8722 21.955 32.7098 22.3287 32.399L21.9815 31.8747C21.7126 32.0902 21.3796 32.2099 21.0351 32.2151C20.8011 32.2348 20.5686 32.1627 20.3869 32.014C20.2052 31.8653 20.0884 31.6518 20.0614 31.4185H22.4785C22.4853 31.33 22.4921 31.2416 22.4921 31.1462ZM20.0682 30.8602C20.0807 30.6417 20.1781 30.4368 20.3397 30.2892C20.5013 30.1416 20.7142 30.0631 20.9329 30.0705C21.1468 30.0663 21.3536 30.1471 21.508 30.2951C21.6625 30.4432 21.7519 30.6464 21.7568 30.8602H20.0682ZM25.4741 30.3496C25.1652 30.1719 24.816 30.0758 24.4597 30.0705C24.0715 30.0705 23.8401 30.2134 23.8401 30.4518C23.8401 30.6697 24.0851 30.7309 24.3916 30.7717L24.7252 30.8194C25.4333 30.9215 25.8622 31.2211 25.8622 31.793C25.8622 32.4126 25.3175 32.8552 24.3779 32.8552C23.875 32.8691 23.381 32.7211 22.9686 32.433L23.3022 31.8815C23.6146 32.1132 23.9959 32.2331 24.3848 32.222C24.8681 32.222 25.1269 32.079 25.1269 31.827C25.1269 31.6432 24.943 31.5411 24.555 31.4866L24.2213 31.439C23.4928 31.3368 23.0979 31.01 23.0979 30.4789C23.0979 29.8321 23.629 29.4372 24.4528 29.4372C24.9189 29.4212 25.3797 29.5393 25.7805 29.7777L25.4741 30.3496ZM28.8765 30.1658H27.7191V31.6365C27.7191 31.9632 27.8348 32.1811 28.1889 32.1811C28.4099 32.1738 28.6254 32.1106 28.8153 31.9973L29.0195 32.6033C28.754 32.7688 28.4473 32.8561 28.1344 32.8552C27.297 32.8552 27.0042 32.4058 27.0042 31.65V30.1658H26.3437V29.519H27.0042L27.004 28.5317H27.7189L27.7191 29.519H28.8765V30.1658ZM31.3271 29.4372C31.4988 29.4379 31.6692 29.4679 31.831 29.5258L31.6131 30.193C31.4723 30.137 31.322 30.1092 31.1705 30.1113C30.7075 30.1113 30.476 30.4109 30.476 30.9487V32.7734H29.7679V29.519H30.4692V29.9138C30.5561 29.7646 30.6817 29.6415 30.8326 29.5576C30.9836 29.4737 31.1544 29.4321 31.3271 29.4372ZM36.2292 32.2997C36.2733 32.2994 36.3169 32.3081 36.3575 32.3251C36.3965 32.3414 36.4321 32.365 36.4623 32.3946C36.4923 32.4241 36.5162 32.4592 36.5329 32.4978C36.5499 32.5375 36.5587 32.5802 36.5587 32.6234C36.5587 32.6666 36.5499 32.7094 36.5329 32.7491C36.5161 32.7875 36.4922 32.8224 36.4623 32.8519C36.432 32.8815 36.3965 32.9051 36.3575 32.9217C36.317 32.939 36.2733 32.9478 36.2292 32.9475C36.1644 32.9482 36.1008 32.9297 36.0463 32.8944C35.9919 32.8591 35.9491 32.8086 35.9232 32.7491C35.9062 32.7094 35.8975 32.6666 35.8975 32.6234C35.8975 32.5803 35.9062 32.5375 35.9232 32.4978C35.9398 32.4592 35.9637 32.4242 35.9935 32.3946C36.0237 32.3648 36.0594 32.3412 36.0987 32.3251C36.1401 32.308 36.1845 32.2994 36.2292 32.2997ZM36.2292 32.8761C36.2628 32.8763 36.2961 32.8696 36.3269 32.8562C36.3565 32.8434 36.3835 32.8251 36.4063 32.8023C36.4355 32.7731 36.4572 32.7372 36.4693 32.6977C36.4814 32.6582 36.4837 32.6163 36.4759 32.5758C36.468 32.5352 36.4503 32.4972 36.4244 32.465C36.3984 32.4329 36.365 32.4076 36.3269 32.3915C36.2961 32.3783 36.2628 32.3717 36.2292 32.372C36.1951 32.3717 36.1612 32.3783 36.1296 32.3915C36.0995 32.4038 36.0722 32.422 36.0491 32.4449C36.002 32.4925 35.9756 32.5567 35.9756 32.6236C35.9756 32.6905 36.002 32.7547 36.0491 32.8023C36.0728 32.8258 36.1009 32.8445 36.1318 32.8571C36.1627 32.8698 36.1958 32.8762 36.2292 32.8761ZM36.2483 32.4719C36.2802 32.4699 36.3118 32.479 36.3377 32.4978C36.348 32.5063 36.3562 32.5171 36.3616 32.5292C36.367 32.5414 36.3696 32.5547 36.369 32.5681C36.3694 32.5795 36.3673 32.5908 36.363 32.6014C36.3587 32.612 36.3522 32.6216 36.344 32.6295C36.3243 32.6471 36.2993 32.6575 36.2729 32.6593L36.3714 32.7728H36.2944L36.2031 32.6601H36.1737V32.7728H36.1094V32.4719H36.2483ZM36.1737 32.5284V32.6086H36.2476C36.2617 32.6093 36.2758 32.6058 36.2881 32.5986C36.293 32.5952 36.297 32.5907 36.2997 32.5853C36.3023 32.58 36.3035 32.574 36.3031 32.5681C36.3034 32.5622 36.3022 32.5564 36.2996 32.5511C36.2969 32.5459 36.293 32.5414 36.2881 32.5382C36.2758 32.5311 36.2617 32.5277 36.2476 32.5284H36.1737Z" fill="black" />
  <path d="M41.1863 21.9339V21.5388H41.3456V21.4583H40.9399V21.5388H41.0993V21.9339H41.1863ZM41.974 21.9339V21.4575H41.8496L41.7066 21.7852L41.5635 21.4575H41.4391V21.9339H41.5269V21.5746L41.6611 21.8843H41.7521L41.8863 21.5738V21.9339H41.974Z" fill="black" />
  <path d="M14.9146 26.6101C21.6939 26.6101 27.1896 21.1144 27.1896 14.3351C27.1896 7.55576 21.6939 2.06006 14.9146 2.06006C8.13535 2.06006 2.63965 7.55576 2.63965 14.3351C2.63965 21.1144 8.13535 26.6101 14.9146 26.6101Z" fill="#EC0015" />
  <path d="M30.0846 26.6101C36.8639 26.6101 42.3596 21.1144 42.3596 14.3351C42.3596 7.55576 36.8639 2.06006 30.0846 2.06006C23.3053 2.06006 17.8096 7.55576 17.8096 14.3351C17.8096 21.1144 23.3053 26.6101 30.0846 26.6101Z" fill="#00A3E6" />
  <path d="M22.499 4.6875C25.354 6.93507 27.1894 10.4195 27.1895 14.335C27.1895 18.2502 25.3537 21.7338 22.499 23.9814C19.6447 21.7338 17.8096 18.2499 17.8096 14.335C17.8096 10.4198 19.6444 6.93509 22.499 4.6875Z" fill="#7476D0" />
</svg>
