<svg width="45" height="35" viewBox="0 0 45 35" fill="none" xmlns="http://www.w3.org/2000/svg">
  <path d="M15.9886 30.1164C22.7316 30.1164 28.1979 24.6501 28.1979 17.9071C28.1979 11.164 22.7316 5.69775 15.9886 5.69775C9.24559 5.69775 3.7793 11.164 3.7793 17.9071C3.7793 24.6501 9.24559 30.1164 15.9886 30.1164Z" fill="#EB001B" />
  <path d="M28.1976 30.1164C34.9406 30.1164 40.4069 24.6501 40.4069 17.9071C40.4069 11.164 34.9406 5.69775 28.1976 5.69775C21.4546 5.69775 15.9883 11.164 15.9883 17.9071C15.9883 24.6501 21.4546 30.1164 28.1976 30.1164Z" fill="#F79E1B" />
  <path d="M22.0928 7.33496C25.7414 9.44619 28.1982 13.3886 28.1982 17.9072C28.1982 22.4257 25.7412 26.3673 22.0928 28.4785C18.4446 26.3672 15.9883 22.4255 15.9883 17.9072C15.9883 13.3888 18.4444 9.44626 22.0928 7.33496Z" fill="#FF5F00" />
</svg>
