<svg width="37" height="20" viewBox="0 0 37 20" fill="none" xmlns="http://www.w3.org/2000/svg">
<path d="M3.29004 5.67903H6.26004C6.53004 5.67903 7.34004 5.5871 7.70004 6.87419C7.97004 7.70161 8.33004 8.98871 8.87004 10.9194H9.05004C9.59004 8.89678 10.04 7.51774 10.22 6.87419C10.58 5.5871 11.48 5.67903 11.84 5.67903H14.63V14.5048H11.75V9.26452H11.57L10.04 14.5048H7.88004L6.35004 9.26452H6.08004V14.5048H3.29004M15.8 5.67903H18.68V10.9194H18.95L20.84 6.59839C21.2 5.77097 22.01 5.67903 22.01 5.67903H24.71V14.5048H21.83V9.26452H21.65L19.76 13.5855C19.4 14.4129 18.5 14.5048 18.5 14.5048H15.8M28.58 11.8387V14.5048H25.88V9.90807H34.7C34.34 11.0113 33.08 11.8387 31.64 11.8387" fill="currentColor" fill-opacity="0.4" style="fill:#0D1126;fill:color(display-p3 0.0510 0.0667 0.1490);fill-opacity:0.4;"/>
<path d="M34.8802 9.35645C35.2402 7.70161 34.1602 5.67903 31.8202 5.67903H25.7002C25.8802 7.60968 27.5002 9.35645 29.2102 9.35645" fill="url(#paint0_linear_211_34894)" style=""/>
<defs>
<linearGradient id="paint0_linear_211_34894" x1="33.8002" y1="4.48387" x2="26.6002" y2="4.48387" gradientUnits="userSpaceOnUse">
<stop stop-color="#1F5CD7" style="stop-color:#1F5CD7;stop-color:color(display-p3 0.1216 0.3608 0.8431);stop-opacity:1;"/>
<stop offset="1" stop-color="#02AEFF" style="stop-color:#02AEFF;stop-color:color(display-p3 0.0078 0.6824 1.0000);stop-opacity:1;"/>
</linearGradient>
</defs>
</svg>
