<svg width="45" height="35" viewBox="0 0 50 43" fill="none"
  xmlns="http://www.w3.org/2000/svg">
  <path fill-rule="evenodd" clip-rule="evenodd" d="M21.1265 7.00175C21.1619 7.00059 21.1973 7 21.2327 7H47.4951C49.2396 7 50.3231 8.41995 49.9134 10.1678L44.104 35.1137C43.6939 36.8555 41.9485 38.2767 40.2043 38.2767H15.0894C15.054 38.2779 15.0186 38.2784 14.9832 38.2784H2.50446C0.764809 38.2784 -0.321146 36.8573 0.0852511 35.1155L5.89799 10.1696C6.30439 8.4217 8.0477 7.00175 9.79191 7.00175H21.1265ZM10.8062 14.8351C10.9273 14.8637 11.3063 14.8767 12.5897 14.8637C12.5824 14.8752 12.5797 14.8878 12.5749 14.9095C12.5743 14.9123 12.5736 14.9153 12.5729 14.9184C12.4138 15.4103 11.4776 19.1913 11.4776 19.1913L11.3729 19.5987L11.3722 19.6013C11.1466 20.3946 10.893 21.2866 9.9268 21.8576C9.36953 22.1986 8.54487 22.3853 7.66576 22.3853C6.98347 22.3853 5.77736 22.2746 5.35454 21.5357C5.22252 21.3027 5.15621 21.0271 5.15621 20.6895L5.31043 19.5512L5.39013 19.2032L6.31821 15.1C6.31821 15.1 6.36201 14.8743 6.37388 14.8351C6.39547 14.8637 6.70909 14.8792 8.47825 14.8637C8.47612 14.8767 8.47369 14.891 8.46517 14.9184C8.30243 15.3996 7.39352 19.0402 7.39352 19.0402C7.39352 19.0463 7.22013 20.1289 7.22013 20.1289L7.23077 20.3129C7.28644 20.8489 7.61801 21.1315 8.18714 21.1315C8.54122 21.1315 8.84662 21.0271 9.10823 20.8109C9.56907 20.4388 9.70474 19.8627 9.89121 19.0545C9.89121 19.0545 10.7597 15.0562 10.8062 14.8351ZM14.7667 18.1502C15.1372 17.9686 15.5496 17.9139 15.7753 17.9139C16.1212 17.9139 16.4978 18.01 16.6548 18.4082C16.8032 18.7635 16.7046 19.1997 16.5084 20.0599L16.4074 20.4995C16.2067 21.4562 16.1735 21.632 16.0604 22.289L15.9868 22.3459C15.3607 22.3353 15.1372 22.3353 14.4041 22.3745L14.3767 22.3185C14.407 22.1837 14.4387 22.0502 14.4705 21.9164C14.5047 21.7722 14.539 21.6277 14.5717 21.4811L14.662 21.0984C14.7974 20.5056 14.9294 19.8151 14.9449 19.6036C14.9452 19.6008 14.9456 19.5978 14.9459 19.5947C14.9607 19.4634 14.9947 19.1617 14.6407 19.1617C14.4886 19.1617 14.3292 19.2353 14.1677 19.3101C14.0984 19.5591 13.9731 20.1628 13.8813 20.6054C13.8565 20.7245 13.8342 20.832 13.8161 20.9177C13.6831 21.5403 13.6417 21.7606 13.5969 21.9982C13.5804 22.0858 13.5635 22.1757 13.5414 22.289L13.4891 22.3459C12.8427 22.3353 12.617 22.3353 11.8732 22.3745L11.8398 22.3103C11.9636 21.8054 12.0871 21.2943 12.206 20.7882C12.5184 19.4147 12.5932 18.8894 12.6775 18.1907L12.7383 18.1502C12.7858 18.1435 12.8309 18.1372 12.874 18.1312C13.4897 18.0446 13.6913 18.0163 14.4257 17.8676L14.492 17.9413L14.3709 18.3784C14.4018 18.3601 14.4324 18.3418 14.4627 18.3236C14.564 18.2628 14.6632 18.2034 14.7667 18.1502ZM19.2051 18.8394C19.2464 18.8314 19.2893 18.8232 19.3341 18.8146L19.3484 18.8477L19.3591 18.8836C19.3274 19.0156 19.295 19.1477 19.2625 19.2803C19.222 19.4457 19.1812 19.6119 19.1416 19.7794C19.1095 19.9207 19.0763 20.0604 19.0433 20.1995C19.0055 20.3586 18.968 20.5168 18.9326 20.6753C18.8756 20.9319 18.8324 21.1233 18.7989 21.2717C18.7499 21.4887 18.7217 21.6134 18.702 21.715C18.6817 21.8115 18.6707 21.8818 18.6531 21.9948C18.6415 22.0684 18.6272 22.1601 18.6056 22.289L18.57 22.3188L18.5368 22.3459C18.4146 22.3452 18.3063 22.3438 18.2077 22.3426C18.0007 22.34 17.8367 22.338 17.6766 22.3437C17.4602 22.3457 17.2492 22.3558 16.9458 22.3703C16.9172 22.3716 16.8879 22.373 16.8577 22.3745L16.8389 22.3437L16.8163 22.3103C16.9006 21.9928 16.9512 21.8568 16.9944 21.7408C17.0004 21.7244 17.0064 21.7085 17.0122 21.6925C17.0609 21.5629 17.105 21.4345 17.1905 21.0662C17.3009 20.5849 17.3687 20.25 17.4129 19.9553C17.4512 19.7454 17.4761 19.5586 17.5022 19.3627C17.5116 19.2926 17.5211 19.2213 17.5315 19.1473L17.5589 19.1257L17.5887 19.0987C17.9653 19.0463 18.2041 19.0108 18.4489 18.9715C18.6675 18.943 18.8873 18.9006 19.2051 18.8394ZM17.9486 17.7462C18.3669 17.4575 18.9883 17.3912 19.3424 17.6002C19.6916 17.807 19.6396 18.2049 19.2235 18.4939C18.8089 18.785 18.185 18.8455 17.837 18.6423C17.4841 18.4306 17.5316 18.0291 17.9486 17.7462ZM23.4871 21.6567C22.9344 22.2425 22.2001 22.44 21.4838 22.44C21.2033 22.44 20.7683 22.4044 20.4665 22.2748C19.4886 21.879 19.6443 20.8156 19.7797 20.2249C19.9138 19.6451 20.1362 19.0403 20.6174 18.5947C21.2875 17.9769 22.1454 17.9413 22.5055 17.9413C23.1045 17.9413 23.6818 18.0755 24.0085 18.4937C24.2236 18.7681 24.3948 19.2186 24.1749 20.1835C24.1074 20.4746 23.9124 21.1815 23.4871 21.6567ZM22.2856 18.9251C21.7879 18.9251 21.593 19.5383 21.4278 20.269C21.3709 20.5221 21.3244 20.7551 21.3268 20.9832C21.3317 21.4453 21.6428 21.4453 21.6952 21.4453C21.871 21.4453 22.0301 21.33 22.1645 21.1399C22.3571 20.8822 22.4994 20.2772 22.5305 20.1144C22.7039 19.3813 22.6756 18.9251 22.2856 18.9251ZM26.0216 22.2891L25.9657 22.346C25.3205 22.3354 25.0981 22.3354 24.3532 22.3746L24.32 22.3104C24.4435 21.8055 24.567 21.2944 24.6859 20.7882C24.9983 19.4145 25.0698 18.8895 25.1577 18.1908L25.2134 18.1503C25.2673 18.1427 25.3182 18.1356 25.3665 18.1288C25.9683 18.0442 26.1762 18.015 26.9032 17.8674L26.9637 17.9413L26.8509 18.3785C26.9804 18.2988 27.1125 18.2194 27.2442 18.1503C27.6125 17.9684 28.0272 17.914 28.2532 17.914C28.5942 17.914 28.9732 18.0101 29.1347 18.4083C29.2807 18.7636 29.1809 19.1995 28.9838 20.0597L28.8853 20.4996C28.6784 21.4559 28.6486 21.6318 28.5382 22.2891L28.4621 22.346C27.8325 22.3354 27.6174 22.3354 26.8819 22.3746L26.8545 22.3186C26.8893 22.1637 26.9266 22.0106 26.964 21.8569C26.9944 21.7324 27.0248 21.6075 27.0541 21.4809L27.1395 21.0982C27.2773 20.5054 27.4093 19.8151 27.4224 19.6034L27.4233 19.5955C27.4383 19.4647 27.4731 19.1614 27.1207 19.1614C26.9656 19.1614 26.8107 19.2333 26.651 19.3075L26.6452 19.3102C26.5818 19.5449 26.4651 20.0947 26.3733 20.5276C26.3414 20.6778 26.3126 20.8138 26.2899 20.9178C26.1534 21.5791 26.115 21.7866 26.0675 22.0432C26.0538 22.1171 26.0394 22.1951 26.0216 22.2891ZM31.6931 20.8109C31.6931 20.8109 31.416 22.1487 31.3697 22.3744C31.1653 22.3519 30.6795 22.3519 29.4947 22.3662L30.7127 17.3508L31.1988 15.0943C31.1988 15.0943 31.2344 14.9185 31.2532 14.8196C31.4768 14.847 32.021 14.8519 33.378 14.8351L33.9006 14.8303C34.9607 14.8351 35.879 14.847 36.3402 15.4922C36.5221 15.7346 36.585 16.0449 36.585 16.3585C36.585 16.5973 36.5492 16.8361 36.5005 17.0368C36.3128 17.8557 35.8921 18.5295 35.2767 18.9858C34.3724 19.651 33.2186 19.651 32.1968 19.651H32.0885C32.0149 19.6915 31.9413 19.7937 31.9413 19.7937C31.927 19.8293 31.6931 20.8109 31.6931 20.8109ZM32.7848 16.1328C32.7873 16.1243 32.2704 18.3725 32.2704 18.3725L32.2491 18.4854H32.5296C32.9631 18.4854 33.3838 18.4711 33.7272 18.2989C34.1442 18.0957 34.4688 17.675 34.5792 17.1746C34.7003 16.6271 34.5269 16.2076 34.1062 16.0449C34.0813 16.0424 33.0154 15.9509 33.0154 15.9509L32.8088 15.9296L32.8015 16.0175L32.7848 16.1328ZM36.1678 22.3353C35.1947 21.9563 35.3517 20.8928 35.4883 20.3106C35.6179 19.733 35.846 19.1307 36.3211 18.6911C36.9973 18.0754 37.784 17.9057 38.1189 18.0374C38.3808 18.1381 38.5505 18.2996 38.6676 18.4888C38.6713 18.4601 38.675 18.4314 38.6788 18.4023C38.6827 18.3727 38.6866 18.3427 38.6905 18.3121L38.7476 18.2656C39.5008 18.1588 39.7101 18.1278 40.4931 17.9827L40.5156 18.0481C40.3717 18.6421 40.2318 19.2329 40.0915 19.8294C39.8149 21.0266 39.7078 21.6571 39.6015 22.2824L39.5887 22.3578L39.52 22.4101C38.7616 22.4043 38.5444 22.4043 37.8445 22.4338L37.8004 22.377L37.8698 22.1111C37.6136 22.3265 37.3371 22.4761 37.0387 22.4923C36.7561 22.5065 36.4781 22.4673 36.1678 22.3353ZM37.9917 19.0215C37.4929 19.0215 37.3003 19.6286 37.1327 20.3462C37.0746 20.6017 37.0281 20.8344 37.0305 21.0604C37.0411 21.5143 37.349 21.5143 37.3989 21.5143C37.5747 21.5143 37.8801 21.4014 38.0085 21.2195C38.0769 21.1286 38.1393 20.992 38.1928 20.8472C38.2061 20.7938 38.2195 20.7403 38.2329 20.6869C38.2725 20.5286 38.3122 20.3702 38.3495 20.2108C38.3838 20.0633 38.4127 19.9328 38.4395 19.809C38.4733 19.3126 38.3072 19.0215 37.9917 19.0215ZM45.6596 17.9078L45.7201 17.9768C45.7201 17.9768 42.601 23.3275 42.1909 24.2103L42.1267 24.2839H42.1365L41.5269 25.3285C41.3343 25.6862 40.9766 25.9524 40.4075 25.9548L39.438 25.9381L39.7206 24.9981H39.9107C40.0096 24.9981 40.0808 24.9933 40.1355 24.9662C40.1854 24.9495 40.221 24.9102 40.2602 24.853L40.6034 24.3104L40.6 24.3031C40.8837 23.8762 41.0429 23.5907 41.2263 23.2618C41.3579 23.0259 41.5019 22.7675 41.7133 22.4186C41.6375 21.6334 41.5962 21.2947 41.5411 20.8436C41.5306 20.7573 41.5196 20.6669 41.5077 20.5685C41.4863 20.3895 41.4614 20.2089 41.4364 20.0277C41.4103 19.8382 41.3841 19.6481 41.3617 19.4585C41.3418 19.2988 41.3272 19.1776 41.3155 19.0812C41.272 18.7219 41.2704 18.7085 41.1965 18.3309L41.1917 18.3203C41.1934 18.3098 41.1945 18.2996 41.1956 18.2897C41.1975 18.2715 41.1994 18.2543 41.2047 18.2381L41.2631 18.1858C41.8082 18.1159 41.967 18.0837 42.3253 18.0109C42.4596 17.9836 42.622 17.9506 42.8434 17.9078L42.9112 17.9768L43.0192 20.0633C43.0204 20.086 43.021 20.1041 43.0216 20.1218C43.0222 20.1404 43.0228 20.1585 43.0241 20.181C43.2204 19.7429 43.3242 19.5588 43.429 19.373C43.5543 19.1507 43.6811 18.9257 43.9698 18.2597L43.9722 18.2716C43.9743 18.2648 43.9759 18.2575 43.9774 18.251C43.9785 18.2462 43.9794 18.2417 43.9805 18.2381L44.0328 18.1858C44.7446 18.0897 44.8848 18.0648 45.6596 17.9078ZM35.077 30.3216H35.4882L35.1697 31.361H34.7634L34.6672 31.6819H33.2187L33.3172 31.361H30.3776L30.6711 30.3985H30.9704L32.513 25.287L32.8205 24.2567H34.2964L34.1419 24.7759C34.1419 24.7759 34.5352 24.493 34.9085 24.3969C35.2169 24.3148 36.7403 24.2764 37.2504 24.2658V24.2628H38.8282L38.8437 24.8495C38.8331 24.9493 38.9186 24.9958 39.1029 24.9958H39.4235L39.1303 25.9653H38.2783C37.5415 26.0176 37.261 25.7016 37.2799 25.3451L37.2644 24.7683L37.1041 25.287H36.5991L35.077 30.3216ZM33.6059 26.5737C33.6059 26.5737 34.0458 26.3753 34.2821 26.3099C34.5246 26.2458 34.8869 26.2245 34.8869 26.2245L35.1697 25.287H33.9971L33.6059 26.5737ZM33.6938 28.2491C33.9363 28.1944 34.3046 28.1482 34.3046 28.1482L34.59 27.2106H33.4112L33.0073 28.5497C33.0073 28.5497 33.455 28.3215 33.6938 28.2491ZM32.4713 30.3334H33.6476L33.9849 29.2034H32.8123L32.4713 30.3334ZM38.1759 27.2106H36.4804L36.7691 26.2375H41.4876L41.1941 27.2106H39.6114L39.3641 27.9997H40.9516L40.6879 28.8624H38.9732L38.6678 29.2259H39.3641L39.5341 30.3131C39.5391 30.3413 39.5428 30.3671 39.5462 30.3905C39.5557 30.4568 39.5626 30.5046 39.5889 30.5388C39.6245 30.5768 39.8335 30.5972 39.9548 30.5972H40.1662L39.8444 31.6545H39.3084C39.2358 31.6545 39.1307 31.65 38.9891 31.6439L38.9318 31.6415C38.8134 31.6311 38.7206 31.5765 38.6359 31.5266C38.6067 31.5094 38.5784 31.4928 38.5504 31.4787C38.4515 31.4325 38.3055 31.3135 38.2699 31.1103L38.1023 30.0256L37.3218 31.0939C37.0745 31.4325 36.7395 31.6904 36.1725 31.6904H35.0817L35.3683 30.7456H35.7853C35.9064 30.7456 36.011 30.6982 36.0907 30.6577C36.1701 30.6246 36.2416 30.5829 36.3213 30.4652L37.4596 28.8624H35.9563L36.2142 27.9997H37.9323L38.1759 27.2106ZM22.5555 29.2366L22.1597 30.5532C22.1123 30.6983 22.5469 30.7171 22.7039 30.7171L23.5167 30.6055L23.19 31.6902H21.3564C21.2079 31.6902 21.0987 31.6689 20.9393 31.6333C20.7848 31.5941 20.716 31.525 20.6482 31.4207C20.6377 31.4038 20.6263 31.3873 20.6147 31.3707C20.5532 31.2823 20.4885 31.1893 20.5484 30.9951L21.0759 29.2534H20.1718L20.4724 28.2575H21.3792L21.6204 27.4471H20.716L21.0047 26.4989H24.9853L24.6906 27.4471H23.0997L22.8511 28.2575H24.4792L24.182 29.2366H22.5555ZM21.9341 24.9957L22.3463 24.2507H23.967L23.682 24.7925H25.3146L25.0186 25.7848H22.7883L22.547 25.9937C22.4855 26.0531 22.4479 26.0633 22.3998 26.0763C22.3661 26.0854 22.3273 26.0959 22.2714 26.1258C22.1455 26.1887 21.8818 26.3147 21.5384 26.3147H20.8241L21.1116 25.3616H21.3266C21.5073 25.3616 21.632 25.3452 21.695 25.306C21.7665 25.2594 21.8459 25.1584 21.9341 24.9957ZM25.6864 30.2204C25.6283 30.4211 25.6009 30.5175 25.6389 30.5723C25.6697 30.6185 25.7436 30.6733 25.8458 30.6733L26.8022 30.5829L26.4742 31.6902H25.4059C25.0649 31.6902 24.8179 31.682 24.6442 31.6689C24.6085 31.6658 24.5725 31.6641 24.5368 31.6623C24.4072 31.656 24.2817 31.6499 24.1904 31.581C24.1789 31.5708 24.1667 31.5601 24.1541 31.5492C24.0585 31.4659 23.9402 31.3629 23.9434 31.2589C23.954 31.1496 24.0003 30.9677 24.0693 30.7171L26.0155 24.2625H27.4057L27.2025 24.9624C27.2025 24.9624 27.6423 24.6108 27.9502 24.4849C28.2553 24.372 28.9482 24.2698 28.9482 24.2698L31.1986 24.2567L30.4323 26.8101C30.3028 27.2463 30.1519 27.5292 30.0579 27.6585C29.9736 27.7881 29.8739 27.9009 29.6789 28.008C29.49 28.1102 29.3166 28.1671 29.1572 28.1838C29.0087 28.1945 28.7806 28.1981 28.4645 28.2027H26.296L25.6864 30.2204ZM28.9671 26.8399H26.6893L26.5491 27.2986H28.5214C28.6775 27.2802 28.7506 27.2892 28.7879 27.2938C28.8059 27.296 28.8156 27.2972 28.8223 27.2938L28.9671 26.8399ZM29.4425 25.3177H27.1456L26.8128 26.4253C26.8128 26.4253 27.2584 26.0177 28.0213 25.8857C28.1947 25.8537 29.2773 25.8644 29.2773 25.8644L29.4425 25.3177ZM28.7829 28.9538C28.8246 28.9228 28.8544 28.8814 28.8733 28.8136L29.0086 28.381H30.0699L29.9404 28.9943C29.8856 29.1868 29.8381 29.3292 29.693 29.453C29.541 29.5823 29.3627 29.7179 28.9457 29.7179L28.1733 29.7499L28.1675 30.4425C28.1607 30.5986 28.1929 30.6176 28.2219 30.6348C28.2292 30.6391 28.2362 30.6432 28.2424 30.6493C28.277 30.684 28.3082 30.6973 28.3407 30.7112L28.3434 30.7123L28.5882 30.698L29.3247 30.6576L29.0193 31.669H28.1733C27.5817 31.669 27.1421 31.6547 26.9995 31.5418C26.8568 31.4515 26.8379 31.3386 26.8401 31.1437L26.8948 28.4415H28.2448L28.2256 28.9943H28.5502C28.6618 28.9943 28.7367 28.9836 28.7829 28.9538Z" fill="currentColor"/>
</svg>
