<svg width="45" height="35" viewBox="0 0 45 35" fill="none" xmlns="http://www.w3.org/2000/svg">
  <g clip-path="url(#clip0_347_162)">
    <path
      d="M10.2801 6H20.313C21.7136 6 22.5997 7.13636 22.2567 8.52841L17.569 28.4716C17.2546 29.8636 15.854 31 14.4534 31H4.39187C2.99127 31 2.13375 29.8636 2.44817 28.4716L7.13592 8.52841C7.45034 7.13636 8.85094 6 10.2801 6Z"
      fill="#ED171F" />
    <path
      d="M19.4554 6H31.0032C32.4038 6 31.775 7.13636 31.432 8.52841L26.7728 28.4716C26.4584 29.8636 26.5441 31 25.1435 31H13.5957C12.1951 31 11.309 29.8636 11.652 28.4716L16.3397 8.52841C16.6542 7.13636 18.0548 6 19.4554 6Z"
      fill="#082F67" />
    <path
      d="M30.5462 6H40.5791C41.9797 6 42.8658 7.13636 42.5228 8.52841L37.8636 28.4716C37.5492 29.8636 36.12 31 34.7194 31H24.6865C23.2859 31 22.3998 29.8636 22.7428 28.4716L27.402 8.52841C27.745 7.13636 29.1456 6 30.5462 6Z"
      fill="#006A65" />
    <path
      d="M32.2038 20.716L30.9747 24.75H31.3177L31.0605 25.5739H30.746L30.6603 25.8296H29.4884L29.5741 25.5739H27.2017L27.4303 24.8069H27.659L28.8881 20.716L29.1454 19.8921H30.3459L30.2315 20.3182C30.2315 20.3182 30.546 20.091 30.8604 20.0057C31.1462 19.9205 32.8898 19.8921 32.8898 19.8921L32.6326 20.716H32.2038ZM30.0886 20.716L29.7742 21.7387C29.7742 21.7387 30.1172 21.5966 30.3173 21.5398C30.5174 21.483 30.8032 21.483 30.8032 21.483L31.0319 20.7444H30.0886V20.716ZM29.6313 22.25L29.3169 23.3296C29.3169 23.3296 29.6884 23.1591 29.86 23.1023C30.06 23.0455 30.3459 23.0171 30.3459 23.0171L30.5745 22.2785H29.6313V22.25ZM28.8595 24.75H29.8314L30.1172 23.841H29.1739L28.8595 24.75Z"
      fill="white" />
    <path
      d="M32.7183 19.8921H33.9759V20.375C33.9759 20.4603 34.0331 20.4887 34.176 20.4887H34.4333L34.2046 21.2557H33.5472C32.9469 21.3125 32.7183 21.0569 32.7468 20.7728L32.7183 19.8921Z"
      fill="white" />
    <path
      d="M32.8897 23.5856H31.6892L31.8893 22.9038H33.2613L33.4614 22.2788H32.0894L32.318 21.5117H36.1197L35.891 22.2788H34.6333L34.4332 22.9038H35.7195L35.5194 23.5856H34.1474L33.8902 23.8697H34.4618L34.6048 24.7504C34.6333 24.8356 34.6333 24.8924 34.6619 24.9208C34.6905 24.9492 34.862 24.9776 34.9478 24.9776H35.1193L34.862 25.8299H34.4332C34.3761 25.8299 34.2617 25.8299 34.1188 25.8299C33.9759 25.8299 33.8902 25.7447 33.8044 25.6879C33.7187 25.6594 33.6043 25.5458 33.5757 25.4038L33.4328 24.5231L32.804 25.3754C32.6039 25.6594 32.3466 25.8583 31.8893 25.8583H30.9746L31.2033 25.0913H31.5463C31.632 25.0913 31.7178 25.0629 31.8035 25.0344C31.8607 25.006 31.9179 24.9776 32.0036 24.8924L32.8897 23.5856Z"
      fill="white" />
    <path
      d="M19.6555 21.6821H22.8569L22.6282 22.4492H21.3419L21.1418 23.1026H22.4567L22.228 23.898H20.9132L20.5987 24.9492C20.5702 25.0628 20.9132 25.0912 21.0275 25.0912L21.6849 25.006L21.4277 25.8867H19.9413C19.827 25.8867 19.7412 25.8583 19.5983 25.8299C19.484 25.8014 19.4268 25.7446 19.3696 25.6594C19.3125 25.5742 19.2267 25.4889 19.2839 25.3185L19.7126 23.9264H18.998L19.2267 23.131H19.9699L20.17 22.4776H19.4554L19.6555 21.6821Z"
      fill="white" />
    <path
      d="M21.7997 20.3183H23.1145L22.8858 21.1138H21.0851L20.885 21.2842C20.7992 21.3695 20.7706 21.341 20.6563 21.3979C20.542 21.4547 20.3419 21.5399 20.0561 21.5399H19.4844L19.713 20.7729H19.8845C20.0275 20.7729 20.1418 20.7729 20.1704 20.716C20.2276 20.6876 20.2847 20.6024 20.3705 20.4604L20.7135 19.8638H22.0283L21.7997 20.3183Z"
      fill="white" />
    <path
      d="M23.6857 19.8921H24.8005L24.629 20.4603C24.629 20.4603 24.972 20.1762 25.2292 20.091C25.4865 20.0057 26.0296 19.9205 26.0296 19.9205H27.8303L27.2015 21.966C27.0872 22.3069 26.9728 22.5341 26.9157 22.6478C26.8585 22.7614 26.7727 22.8466 26.6012 22.9319C26.4583 23.0171 26.3154 23.0739 26.1725 23.0739C26.0581 23.0739 25.8581 23.0739 25.6294 23.1023H23.8858L23.3999 24.7216C23.3427 24.8921 23.3427 24.9489 23.3713 25.0057C23.3999 25.0341 23.457 25.091 23.5428 25.091L24.3145 25.0057L24.0573 25.8864H23.1998C22.9139 25.8864 22.7138 25.8864 22.5995 25.858C22.4566 25.858 22.3137 25.858 22.2279 25.8012C22.1422 25.7444 22.0278 25.6307 22.0278 25.5455C22.0278 25.4603 22.085 25.3182 22.1422 25.1194L23.6857 19.8921ZM26.0581 21.966H24.2288L24.1144 22.3353H25.6866C25.8866 22.3069 25.9152 22.3353 25.9152 22.3353L26.0581 21.966ZM24.3145 21.625C24.3145 21.625 24.6861 21.3125 25.2864 21.1989C25.4293 21.1705 26.2868 21.1705 26.2868 21.1705L26.4297 20.7444H24.5718L24.3145 21.625Z"
      fill="white" />
    <path
      d="M26.9452 23.1875L26.8308 23.6705C26.7737 23.8125 26.7451 23.9261 26.6307 24.0398C26.5164 24.1534 26.3735 24.2386 26.0305 24.2386L25.4016 24.267V24.8068C25.4016 24.9773 25.4302 24.9489 25.4588 24.9773C25.4874 25.0057 25.516 25.0057 25.5445 25.0341H25.7446L26.3449 25.0057L26.1162 25.8011H25.4302C24.9443 25.8011 24.6013 25.8011 24.4869 25.6875C24.3726 25.6307 24.344 25.517 24.3726 25.375L24.4298 23.2159H25.516L25.4874 23.6705H25.7446C25.8304 23.6705 25.8876 23.6705 25.9447 23.642C25.9733 23.6136 26.0019 23.5852 26.0305 23.5284L26.1448 23.1875H26.9452Z"
      fill="white" />
    <path
      d="M11.4525 12.3633C11.424 12.5337 10.7094 15.744 10.7094 15.744C10.5664 16.3974 10.4521 16.8519 10.0805 17.136C9.88043 17.3065 9.62317 17.3917 9.33734 17.3917C8.88 17.3917 8.62274 17.1644 8.56557 16.7383V16.5962L8.70849 15.7156C8.70849 15.7156 9.45167 12.8178 9.56601 12.4201C9.56601 12.3917 9.56601 12.3917 9.56601 12.3917C8.13682 12.3917 7.87956 12.3917 7.87956 12.3633C7.87956 12.3917 7.8224 12.5621 7.8224 12.5621L7.07922 15.8292L7.02205 16.1133L6.90771 17.0224C6.90771 17.2781 6.96488 17.5053 7.07922 17.7042C7.42222 18.3008 8.39407 18.386 8.93716 18.386C9.65176 18.386 10.3092 18.244 10.7665 17.9599C11.5383 17.5053 11.7384 16.7951 11.9385 16.1417L12.0242 15.8292C12.0242 15.8292 12.7674 12.8178 12.9103 12.4201C12.9103 12.3917 12.9103 12.3917 12.9103 12.3917C11.8527 12.3917 11.5383 12.3917 11.4525 12.3633Z"
      fill="white" />
    <path
      d="M15.6253 18.3573C15.1108 18.3573 14.9393 18.3573 14.3676 18.3857L14.339 18.3573C14.3962 18.13 14.4534 17.9027 14.5105 17.6755L14.5963 17.363C14.7106 16.88 14.8249 16.3402 14.8249 16.1698C14.8249 16.0562 14.8821 15.8289 14.5677 15.8289C14.4534 15.8289 14.3104 15.8857 14.1961 15.9425C14.1389 16.1982 13.996 16.9084 13.9103 17.2209C13.7673 17.9027 13.7673 17.988 13.6816 18.3289L13.6244 18.3857C13.1099 18.3857 12.9384 18.3857 12.3382 18.4141L12.3096 18.3573C12.4239 17.9596 12.5097 17.5334 12.5954 17.1357C12.8527 16.0277 12.9098 15.63 12.967 15.0618L13.0242 15.0334C13.5958 14.9482 13.7388 14.9482 14.3676 14.8062L14.4248 14.863L14.339 15.2039C14.4534 15.1471 14.5391 15.0902 14.6534 15.0334C14.9393 14.8914 15.2823 14.8346 15.4538 14.8346C15.7396 14.8346 16.0255 14.9198 16.1684 15.2323C16.2827 15.5164 16.197 15.8573 16.054 16.5675L15.9683 16.9084C15.7968 17.6755 15.7682 17.8175 15.6825 18.3289L15.6253 18.3573Z"
      fill="white" />
    <path
      d="M17.6545 18.3585C17.3401 18.3585 17.14 18.3585 16.9685 18.3585C16.7684 18.3585 16.5969 18.3585 16.3111 18.3869L16.2825 18.3585L16.2539 18.3301C16.3397 18.046 16.3682 17.9324 16.3968 17.8471C16.4254 17.7335 16.4826 17.6483 16.5397 17.3358C16.6255 16.9664 16.6827 16.6824 16.7112 16.4551C16.7398 16.2278 16.7684 16.0289 16.797 15.8017L16.8256 15.7733L16.8542 15.7449C17.1686 15.688 17.3401 15.688 17.5402 15.6312C17.7403 15.6028 17.9403 15.5744 18.2548 15.5176V15.546V15.5744C18.1976 15.8017 18.1404 16.0574 18.0833 16.2846C18.0261 16.5119 17.9689 16.7676 17.9118 16.9949C17.7974 17.5062 17.7403 17.6767 17.7403 17.8187C17.7117 17.9608 17.7117 18.0176 17.6545 18.2733V18.3585Z"
      fill="white" />
    <path
      d="M22.1993 16.6536C22.3708 15.8866 22.2279 15.5173 22.0564 15.29C21.7991 14.9491 21.3418 14.8354 20.8558 14.8354C20.57 14.8354 19.884 14.8639 19.3409 15.3468C18.9693 15.6877 18.7692 16.1991 18.6549 16.6536C18.5406 17.1366 18.4262 17.9889 19.198 18.3014C19.4552 18.415 19.7982 18.4434 20.0269 18.4434C20.5986 18.4434 21.1989 18.2729 21.6276 17.8184C21.9992 17.4491 22.1421 16.8809 22.1993 16.6536ZM20.8844 16.5968C20.8558 16.7104 20.7415 17.2218 20.5986 17.4207C20.4843 17.5627 20.3699 17.6764 20.227 17.6764C20.1984 17.6764 19.9412 17.6764 19.9412 17.307C19.9412 17.1366 19.9697 16.9377 20.0269 16.7389C20.1698 16.1423 20.3128 15.6593 20.7129 15.6593C20.9988 15.6309 21.0273 16.0002 20.8844 16.5968Z"
      fill="white" />
    <path
      d="M34.5483 18.4143C33.948 18.4143 33.7765 18.4143 33.2049 18.4427L33.1763 18.3859C33.3192 17.8177 33.4907 17.2211 33.6336 16.653C33.8051 15.8859 33.8623 15.5734 33.9194 15.1473L33.9766 15.1189C34.5769 15.0336 34.7484 15.0052 35.3772 14.8916L35.4058 14.9484C35.2915 15.4314 35.1771 15.8859 35.0628 16.3689C34.8341 17.3632 34.7484 17.8746 34.6626 18.3859L34.5483 18.4143Z"
      fill="white" />
    <path
      d="M34.8336 16.7106C35.0051 15.9435 34.2905 16.6537 34.1761 16.3981C34.0046 16.0003 34.119 15.2049 33.4044 14.9208C33.1471 14.8071 32.4897 14.9492 31.9752 15.4321C31.6036 15.7731 31.4035 16.256 31.2892 16.739C31.1748 17.1935 31.0605 18.0458 31.8323 18.3583C32.0895 18.4719 32.3182 18.5003 32.5469 18.4719C33.3472 18.4151 33.9475 17.2503 34.3762 16.7674C34.7192 16.4265 34.7764 16.9378 34.8336 16.7106ZM33.633 16.6537C33.6045 16.7674 33.4901 17.2787 33.3186 17.4776C33.2043 17.6196 32.9756 17.7049 32.8327 17.7049C32.8041 17.7049 32.5469 17.7049 32.5469 17.3356C32.5469 17.1651 32.5754 16.9662 32.6326 16.7674C32.7755 16.1992 32.9184 15.7162 33.3186 15.7162C33.633 15.7162 33.7474 16.0571 33.633 16.6537Z"
      fill="white" />
    <path
      d="M25.6583 18.3573C25.1438 18.3573 24.9723 18.3573 24.4006 18.3857L24.372 18.3573C24.4292 18.13 24.4863 17.9027 24.5435 17.6755L24.6007 17.363C24.715 16.88 24.8293 16.3402 24.8293 16.1698C24.8293 16.0562 24.8865 15.8289 24.5721 15.8289C24.4577 15.8289 24.3148 15.8857 24.2005 15.9425C24.1433 16.1982 23.9718 16.9084 23.9147 17.2209C23.7717 17.9027 23.7717 17.988 23.686 18.3289L23.6288 18.3857C23.1143 18.3857 22.9428 18.3857 22.3426 18.4141L22.314 18.3573C22.4283 17.9596 22.5141 17.5334 22.5998 17.1357C22.8571 16.0277 22.9142 15.63 22.9714 15.0618L23.0286 15.0334C23.6002 14.9482 23.7432 14.9482 24.372 14.8062L24.4292 14.863L24.3434 15.2039C24.4578 15.1471 24.5435 15.0902 24.6578 15.0334C24.9437 14.8914 25.2867 14.8346 25.4582 14.8346C25.744 14.8346 26.0299 14.9198 26.1728 15.2323C26.2871 15.5164 26.2014 15.8573 26.0584 16.5675L25.9727 16.9084C25.8012 17.6755 25.7726 17.8175 25.6869 18.3289L25.6583 18.3573Z"
      fill="white" />
    <path
      d="M30.5746 14.2389C30.4888 14.6366 30.2316 14.9775 29.8886 15.1479C29.6027 15.29 29.2597 15.29 28.9167 15.29H28.688L28.7166 15.2048L29.1454 13.415V13.3298V13.2729L29.3169 13.3014C29.3169 13.3014 30.1744 13.3866 30.203 13.3866C30.5174 13.4718 30.6603 13.8127 30.5746 14.2389ZM30.0315 12.3639H29.6027C28.5165 12.3639 28.0878 12.3639 27.8877 12.3354C27.8591 12.4207 27.8305 12.5627 27.8305 12.5627L27.4303 14.3525C27.4303 14.3525 26.4871 18.1877 26.4585 18.3582C27.4018 18.3582 27.8019 18.3582 27.9734 18.3582C28.002 18.1877 28.2307 17.1082 28.2307 17.1082C28.2307 17.1082 28.4308 16.3127 28.4308 16.2843C28.4308 16.2843 28.4879 16.1991 28.5451 16.1707H28.6309C29.4598 16.1707 30.3745 16.1707 31.1177 15.6309C31.6036 15.2616 31.9466 14.7218 32.0895 14.0684C32.1181 13.8979 32.1467 13.6991 32.1467 13.5286C32.1467 13.2729 32.0895 13.0457 31.9466 12.8468C31.6036 12.3639 30.889 12.3639 30.0315 12.3639Z"
      fill="white" />
    <path
      d="M39.5221 14.8923L39.4649 14.8354C38.836 14.9491 38.7217 14.9775 38.15 15.0627L38.1214 15.0911V15.1195C37.6927 16.1139 37.7213 15.8866 37.3497 16.6536C37.3497 16.6252 37.3497 16.5968 37.3497 16.5684L37.2639 14.8923L37.2068 14.8354C36.5493 14.9491 36.5493 14.9775 35.9491 15.0627L35.8919 15.0911C35.8919 15.1195 35.8919 15.1479 35.8919 15.1479C35.9777 15.5173 35.9491 15.432 36.0348 16.057C36.0634 16.3411 36.1206 16.6536 36.1492 16.9377C36.2063 17.4207 36.2349 17.6764 36.3207 18.415C35.9205 19.0684 35.8062 19.3241 35.4346 19.9207L35.4632 19.9775C36.0634 19.9491 36.1778 19.9491 36.6351 19.9491L36.7208 19.8354C37.0353 19.1536 39.5221 14.8923 39.5221 14.8923Z"
      fill="white" />
    <path
      d="M18.2267 15.2898C18.5697 15.0625 18.5982 14.75 18.3124 14.5796C18.0266 14.4091 17.5406 14.4659 17.1976 14.6932C16.8546 14.9205 16.826 15.233 17.1119 15.4034C17.3977 15.5739 17.8836 15.5171 18.2267 15.2898Z"
      fill="white" />
    <path
      d="M36.6343 19.9199L36.1484 20.7438C36.0054 21.0279 35.691 21.2551 35.2337 21.2551H34.4619L34.6906 20.4881H34.8335C34.9193 20.4881 34.9764 20.4881 35.005 20.4597C35.0336 20.4597 35.0622 20.4313 35.1193 20.3745L35.4052 19.9199H36.6343Z"
      fill="white" />
  </g>
  <defs>
    <clipPath id="clip0_347_162">
      <rect width="40.2174" height="25" fill="white" transform="translate(2.3916 6)" />
    </clipPath>
  </defs>
</svg>