<svg width="45" height="35" viewBox="0 0 50 43" fill="none"
  xmlns="http://www.w3.org/2000/svg">
  <path d="M18.9838 14.2819L12.4375 29.7182H8.1668L4.94531 17.3985C4.75 16.6416 4.58027 16.363 3.98594 16.0429C3.01445 15.5213 1.41016 15.0334 0 14.7299L0.0951172 14.2819H6.9709C7.8459 14.2819 8.63379 14.8577 8.83418 15.8549L10.5363 24.7881L14.7387 14.2819H18.9838ZM24.7572 14.2819L21.4168 29.7182H17.3762L20.717 14.2819H24.7572ZM35.7174 24.6783C35.7342 20.605 30.0193 20.3789 30.0566 18.559C30.0703 18.0057 30.6035 17.4167 31.7707 17.2661C32.3488 17.1922 33.9461 17.1333 35.7553 17.9572L36.4631 14.6819C35.491 14.3344 34.24 14 32.684 14C28.6898 14 25.8803 16.097 25.8578 19.1021C25.8316 21.3249 27.8646 22.5637 29.3936 23.3041C30.9684 24.0601 31.4965 24.546 31.4893 25.2217C31.4779 26.2575 30.2314 26.716 29.0727 26.733C27.0406 26.7648 25.8627 26.1901 24.923 25.7575L24.1896 29.1413C25.135 29.5695 26.8772 29.9415 28.6816 29.9605C32.9277 29.9605 35.7049 27.8874 35.7174 24.6783ZM46.2643 29.7182H50L46.7363 14.2819H43.2896C42.5123 14.2819 41.859 14.7278 41.5691 15.4134L35.5066 29.7182H39.7494L40.591 27.4123H45.7746L46.2643 29.7182ZM41.7545 24.2491L43.8818 18.4522L45.1039 24.2491H41.7545Z" fill="currentColor"/>
</svg>
