<svg width="45" height="35" viewBox="0 0 45 35" fill="none"
  xmlns="http://www.w3.org/2000/svg">
  <path d="M21.9464 9.22964L19.2549 21.8117H15.9996L18.6911 9.22964H21.9464ZM35.6404 17.354L37.3545 12.629L38.3391 17.354H35.6404ZM39.274 21.8117H42.2837L39.6542 9.22964H36.8773C36.251 9.22964 35.7248 9.59308 35.4912 10.152L30.6067 21.8117H34.0251L34.7031 19.9323H38.8795L39.274 21.8117ZM30.7765 17.7038C30.7901 14.3837 26.1857 14.1995 26.2158 12.7159C26.2269 12.265 26.6564 11.7848 27.5968 11.6621C28.0626 11.6019 29.3495 11.5538 30.8071 12.2254L31.3773 9.55579C30.5941 9.27259 29.5864 8.99995 28.3327 8.99995C25.1147 8.99995 22.851 10.7091 22.833 13.1586C22.8119 14.9704 24.4498 15.9802 25.6816 16.5836C26.9504 17.1999 27.3759 17.596 27.37 18.1467C27.361 18.9909 26.3568 19.3646 25.4231 19.3785C23.7859 19.4045 22.8368 18.9361 22.0798 18.5835L21.489 21.3416C22.2506 21.6906 23.6543 21.9938 25.108 22.0093C28.529 22.0093 30.7665 20.3196 30.7765 17.7038ZM17.2947 9.22964L12.0208 21.8117H8.57976L5.98422 11.7701C5.82706 11.1531 5.69022 10.926 5.21129 10.6651C4.42859 10.24 3.1361 9.84232 1.99998 9.59488L2.07663 9.22964H7.61623C8.32126 9.22964 8.95606 9.69905 9.11733 10.5118L10.4888 17.7933L13.8745 9.22964H17.2947Z" fill="#131972" />
  <path d="M26.1124 25.2753H24.7898V26.5063H26.2693V26.8765H24.344V23.4612H26.1934V23.8313H24.7898V24.9103H26.1124V25.2753Z" fill="#131972" />
  <path d="M26.9525 23.2786H27.3983V26.876H26.9525V23.2786Z" fill="#131972" />
  <path d="M29.8299 25.412C29.8351 25.1334 29.7134 24.6926 29.2118 24.6926C28.7558 24.6926 28.5631 25.1031 28.5276 25.412H29.8299ZM28.5228 25.7312C28.5328 26.3344 28.9129 26.5826 29.3636 26.5826C29.683 26.5826 29.8806 26.5268 30.0429 26.456L30.1239 26.7752C29.9667 26.846 29.6933 26.9321 29.3029 26.9321C28.5482 26.9321 28.0973 26.4306 28.0973 25.6908C28.0973 24.9511 28.5328 24.3734 29.2473 24.3734C30.0529 24.3734 30.2607 25.0727 30.2607 25.5236C30.2607 25.6147 30.2556 25.6805 30.2453 25.7312H28.5228Z" fill="#131972" />
  <path d="M32.6866 26.7901C32.5701 26.846 32.3116 26.9321 31.9824 26.9321C31.2426 26.9321 30.7614 26.4306 30.7614 25.6805C30.7614 24.9256 31.2779 24.3734 32.0786 24.3734C32.342 24.3734 32.575 24.439 32.6967 24.5051L32.5956 24.8446C32.4888 24.7888 32.3216 24.7278 32.0786 24.7278C31.516 24.7278 31.2123 25.1484 31.2123 25.6553C31.2123 26.2227 31.577 26.5723 32.0634 26.5723C32.3168 26.5723 32.4839 26.5116 32.6105 26.4558L32.6866 26.7901Z" fill="#131972" />
  <path d="M33.9373 23.8363V24.424H34.5754V24.7633H33.9373V26.0859C33.9373 26.3902 34.0234 26.5623 34.2716 26.5623C34.393 26.5623 34.4643 26.5522 34.5301 26.5316L34.5505 26.8714C34.4643 26.9018 34.3275 26.9321 34.1551 26.9321C33.9473 26.9321 33.7801 26.8611 33.6739 26.7449C33.5522 26.6078 33.5015 26.3902 33.5015 26.1013V24.7633H33.1214V24.424H33.5015V23.968L33.9373 23.8363Z" fill="#131972" />
  <path d="M35.1982 25.1891C35.1982 24.9003 35.1928 24.6521 35.1779 24.4239H35.5681L35.5884 24.9103H35.6033C35.715 24.5811 35.9884 24.3733 36.2873 24.3733C36.3331 24.3733 36.3686 24.3784 36.4092 24.3833V24.8041C36.3634 24.7938 36.3181 24.7938 36.2569 24.7938C35.9431 24.7938 35.7199 25.0268 35.6592 25.3615C35.6491 25.4222 35.644 25.4981 35.644 25.5693V26.8765H35.1982V25.1891Z" fill="#131972" />
  <path d="M37.2089 25.6553C37.2089 26.1924 37.513 26.5978 37.9487 26.5978C38.3744 26.5978 38.6933 26.1973 38.6933 25.645C38.6933 25.2296 38.4857 24.7075 37.9587 24.7075C37.4371 24.7075 37.2089 25.1941 37.2089 25.6553ZM39.1496 25.6299C39.1496 26.5368 38.5161 26.9321 37.9284 26.9321C37.2696 26.9321 36.7532 26.4455 36.7532 25.6705C36.7532 24.8546 37.2951 24.3734 37.969 24.3734C38.6733 24.3734 39.1496 24.885 39.1496 25.6299Z" fill="#131972" />
  <path d="M39.8328 25.0873C39.8328 24.8291 39.8274 24.6264 39.8125 24.4237H40.2076L40.233 24.8291H40.2431C40.3647 24.6009 40.6484 24.373 41.0538 24.373C41.3931 24.373 41.9201 24.5757 41.9201 25.4165V26.876H41.4744V25.4623C41.4744 25.0673 41.3275 24.7378 40.9069 24.7378C40.6181 24.7378 40.3899 24.9456 40.3092 25.1938C40.2886 25.2496 40.2786 25.3255 40.2786 25.4016V26.876H39.8328V25.0873Z" fill="#131972" />
</svg>
