<svg width="21" height="20" viewBox="0 0 21 20" fill="none" xmlns="http://www.w3.org/2000/svg">
<path d="M14.6667 2.49992H18C18.221 2.49992 18.433 2.58772 18.5892 2.744C18.7455 2.90028 18.8333 3.11224 18.8333 3.33325V16.6666C18.8333 16.8876 18.7455 17.0996 18.5892 17.2558C18.433 17.4121 18.221 17.4999 18 17.4999H2.99999C2.77898 17.4999 2.56701 17.4121 2.41073 17.2558C2.25445 17.0996 2.16666 16.8876 2.16666 16.6666V3.33325C2.16666 3.11224 2.25445 2.90028 2.41073 2.744C2.56701 2.58772 2.77898 2.49992 2.99999 2.49992H6.33332V0.833252H7.99999V2.49992H13V0.833252H14.6667V2.49992ZM13 4.16659H7.99999V5.83325H6.33332V4.16659H3.83332V7.49992H17.1667V4.16659H14.6667V5.83325H13V4.16659ZM17.1667 9.16658H3.83332V15.8333H17.1667V9.16658Z" fill="currentColor" fill-opacity="0.4" style="fill:#0D1126;fill:color(display-p3 0.0510 0.0667 0.1490);fill-opacity:0.4;"/>
</svg>
