<svg width="16" height="16" viewBox="0 0 16 16" fill="none" xmlns="http://www.w3.org/2000/svg">
<path d="M8.00004 14.6667C4.31804 14.6667 1.33337 11.682 1.33337 8.00004C1.33337 4.31804 4.31804 1.33337 8.00004 1.33337C11.682 1.33337 14.6667 4.31804 14.6667 8.00004C14.6667 11.682 11.682 14.6667 8.00004 14.6667ZM8.00004 13.3334C9.41453 13.3334 10.7711 12.7715 11.7713 11.7713C12.7715 10.7711 13.3334 9.41453 13.3334 8.00004C13.3334 6.58555 12.7715 5.229 11.7713 4.2288C10.7711 3.22861 9.41453 2.66671 8.00004 2.66671C6.58555 2.66671 5.229 3.22861 4.2288 4.2288C3.22861 5.229 2.66671 6.58555 2.66671 8.00004C2.66671 9.41453 3.22861 10.7711 4.2288 11.7713C5.229 12.7715 6.58555 13.3334 8.00004 13.3334ZM7.33337 4.66671H8.66671V6.00004H7.33337V4.66671ZM7.33337 7.33337H8.66671V11.3334H7.33337V7.33337Z" fill="currentColor"/>
</svg>
