<svg width="17" height="16" viewBox="0 0 17 16" fill="none" xmlns="http://www.w3.org/2000/svg">
<path d="M8.50001 14.6666C4.81801 14.6666 1.83334 11.6819 1.83334 7.99992C1.83334 4.31792 4.81801 1.33325 8.50001 1.33325C12.182 1.33325 15.1667 4.31792 15.1667 7.99992C15.1667 11.6819 12.182 14.6666 8.50001 14.6666ZM8.50001 13.3333C9.9145 13.3333 11.2711 12.7713 12.2712 11.7712C13.2714 10.771 13.8333 9.41441 13.8333 7.99992C13.8333 6.58543 13.2714 5.22888 12.2712 4.22868C11.2711 3.22849 9.9145 2.66659 8.50001 2.66659C7.08552 2.66659 5.72897 3.22849 4.72877 4.22868C3.72858 5.22888 3.16668 6.58543 3.16668 7.99992C3.16668 9.41441 3.72858 10.771 4.72877 11.7712C5.72897 12.7713 7.08552 13.3333 8.50001 13.3333ZM7.83334 4.66659H9.16668V5.99992H7.83334V4.66659ZM7.83334 7.33325H9.16668V11.3333H7.83334V7.33325Z" fill="currentColor" style="fill:#E6483D;fill:color(display-p3 0.9020 0.2824 0.2392);fill-opacity:1;"/>
</svg>
